<?xml version="1.0" encoding="utf-8"?>
<!-- Generator: Adobe Illustrator 22.0.0, SVG Export Plug-In . SVG Version: 6.00 Build 0)  -->
<svg version="1.1" id="图层_1" xmlns="http://www.w3.org/2000/svg" xmlns:xlink="http://www.w3.org/1999/xlink" x="0px" y="0px"
	 viewBox="0 0 100 100" style="enable-background:new 0 0 100 100;" xml:space="preserve">
<style type="text/css">
	.st0{fill:#3D3D3D;}
</style>
<path class="st0" d="M77.3,24c-0.1,0.2-0.2,0.5-0.4,0.8c-6.7,10.3-13.4,20.7-20,31c-0.2,0.4-0.5,0.7-0.9,0.9
	c-10.4,6.7-20.8,13.4-31.2,20.1c-0.6,0.4-1.1,0.5-1.7,0c-0.6-0.5-0.4-1.1,0-1.7c0.1-0.1,0.1-0.2,0.2-0.3c3.2-4.9,6.4-9.9,9.6-14.8
	c3.4-5.2,6.8-10.5,10.2-15.7c0.3-0.5,0.7-0.9,1.2-1.3c10.3-6.6,20.5-13.3,30.8-19.9c0.3-0.2,0.7-0.4,1-0.5
	C76.7,22.7,77.3,23.3,77.3,24z M54.8,50c0-2.6-2.2-4.8-4.8-4.7c-2.5,0-4.7,2.2-4.7,4.7c0,2.6,2.2,4.8,4.8,4.8
	C52.7,54.8,54.8,52.6,54.8,50z"/>
<path class="st0" d="M50,4.5c25.1,0,45.5,20.4,45.5,45.5S75.1,95.5,50,95.5S4.5,75.1,4.5,50S24.9,4.5,50,4.5 M50,0
	C22.4,0,0,22.4,0,50s22.4,50,50,50s50-22.4,50-50S77.6,0,50,0L50,0z"/>
</svg>
